<?xml version="1.0" standalone="no"?>
<!DOCTYPE svg PUBLIC "-//W3C//DTD SVG 20010904//EN"
 "http://www.w3.org/TR/2001/REC-SVG-20010904/DTD/svg10.dtd">
<svg version="1.0" xmlns="http://www.w3.org/2000/svg"
 width="588.000000pt" height="588.000000pt" viewBox="0 0 588.000000 588.000000"
 preserveAspectRatio="xMidYMid meet">
<metadata>
Created by potrace 1.11, written by Peter Selinger 2001-2013
</metadata>
<g transform="translate(0.000000,588.000000) scale(0.100000,-0.100000)"
fill="#000000" stroke="none">
<path d="M2667 5225 c-313 -38 -663 -160 -927 -322 -1109 -683 -1435 -2139
-723 -3225 358 -547 920 -907 1584 -1015 146 -24 532 -24 678 0 589 96 1090
384 1455 837 327 405 506 915 506 1440 0 800 -415 1542 -1097 1960 -198 122
-495 242 -716 289 -230 50 -530 64 -760 36z m143 -1435 l0 -160 -460 0 -460 0
0 -215 0 -215 405 0 406 0 -3 -157 -3 -158 -402 -3 -403 -2 0 -385 0 -385
-195 0 -195 0 0 920 0 920 655 0 655 0 0 -160z m1247 144 c207 -42 339 -155
400 -339 23 -71 26 -96 27 -225 0 -109 -4 -162 -18 -215 -39 -151 -117 -248
-249 -311 -120 -57 -180 -65 -484 -71 l-273 -5 0 -329 0 -329 -190 0 -190 0 0
920 0 920 450 0 c372 0 464 -3 527 -16z"/>
<path d="M3460 3360 l0 -271 228 3 c222 3 228 4 284 30 76 35 113 86 128 177
14 85 0 179 -36 233 -14 23 -45 49 -77 65 -52 28 -52 28 -289 31 l-238 4 0
-272z"/>
</g>
</svg>
